<?xml version="1.0" standalone="no"?>
<!DOCTYPE svg PUBLIC "-//W3C//DTD SVG 20010904//EN"
 "http://www.w3.org/TR/2001/REC-SVG-20010904/DTD/svg10.dtd">
<svg version="1.0" xmlns="http://www.w3.org/2000/svg"
 width="408.000000pt" height="612.000000pt" viewBox="0 0 408.000000 612.000000"
 preserveAspectRatio="xMidYMid meet">

<g transform="translate(0.000000,612.000000) scale(0.100000,-0.100000)"
fill="#000000" stroke="none">
<path d="M2787 4613 c-4 -3 -7 -18 -7 -32 l0 -26 123 0 c108 0 126 -3 159 -22
l38 -22 15 22 c22 31 19 56 -7 62 -25 5 -248 25 -289 25 -14 0 -29 -3 -32 -7z"/>
<path d="M2800 4541 c-13 -9 -13 -12 0 -26 18 -17 249 -40 263 -26 26 26 -35
47 -163 56 -52 4 -91 2 -100 -4z"/>
<path d="M2838 4422 c4 -59 4 -61 27 -52 15 6 29 5 40 -4 26 -19 12 -61 -30
-89 l-35 -22 -1 -115 c0 -125 -11 -125 -25 0 -10 96 -8 111 19 133 60 50 67
58 62 67 -17 28 -131 -9 -146 -47 -5 -13 -9 -40 -9 -59 0 -69 -32 -191 -73
-278 -47 -100 -141 -241 -207 -312 -25 -27 -44 -53 -42 -59 2 -5 0 -7 -4 -3
-4 4 -22 -8 -40 -28 -19 -19 -34 -32 -34 -28 0 4 -11 -3 -25 -16 -13 -12 -21
-28 -18 -34 5 -7 2 -7 -8 1 -11 9 -18 8 -32 -2 -11 -8 -14 -14 -6 -17 7 -2 5
-9 -7 -18 -10 -8 -15 -10 -11 -3 4 6 3 14 -2 17 -19 12 -23 -17 -5 -33 11 -9
17 -15 15 -14 -2 2 -10 -5 -17 -15 -12 -15 -12 -14 -7 7 4 17 3 22 -5 17 -7
-4 -12 -14 -12 -22 0 -8 -5 -14 -11 -14 -7 0 -5 9 5 24 10 17 12 27 5 31 -12
8 -24 -1 -24 -18 0 -7 -8 -13 -17 -15 -10 -2 -18 1 -18 7 0 6 -7 8 -15 5 -8
-4 -15 -13 -15 -21 0 -8 5 -11 11 -8 12 8 40 -26 32 -38 -3 -5 -9 -4 -12 2 -5
8 -26 7 -74 -6 -58 -15 -67 -21 -67 -41 0 -13 7 -37 16 -54 20 -39 81 -276 89
-350 4 -29 8 -58 10 -65 3 -7 44 4 123 34 l119 45 23 82 c28 100 122 367 161
461 17 39 35 84 42 100 28 71 170 345 209 405 l43 65 5 -215 5 -215 38 175
c21 96 46 209 55 251 11 53 20 75 29 72 20 -8 39 43 23 62 -10 13 -9 15 8 15
12 0 23 9 28 22 8 26 -25 58 -62 58 -23 0 -38 12 -27 23 3 3 23 -3 45 -14 21
-11 43 -17 48 -14 16 10 12 34 -8 51 -17 14 -17 19 -3 87 8 40 20 75 25 79 6
4 -9 8 -34 8 -25 0 -74 3 -110 6 l-65 6 3 -60z m132 -118 c0 -16 -16 -19 -25
-4 -8 13 4 32 16 25 5 -4 9 -13 9 -21z m-20 -104 c10 -18 9 -19 -15 -8 -25 11
-30 19 -19 31 9 9 22 0 34 -23z m-10 -45 c0 -19 -20 -29 -32 -17 -15 15 -2 43
17 36 8 -3 15 -12 15 -19z m-585 -653 c-3 -3 -11 0 -18 7 -9 10 -8 11 6 5 10
-3 15 -9 12 -12z m-190 -122 c-4 -6 5 -10 19 -10 14 0 26 -4 26 -10 0 -5 -7
-7 -15 -4 -9 4 -15 1 -15 -7 0 -7 -6 -5 -14 6 -13 18 -13 35 0 35 3 0 2 -4 -1
-10z m77 -44 c4 -6 8 -21 8 -33 0 -16 7 -22 28 -25 24 -3 27 -7 27 -38 0 -31
-3 -35 -30 -40 -24 -4 -31 -11 -33 -33 -3 -23 -8 -27 -33 -27 -28 0 -35 10
-30 48 1 7 -10 12 -29 12 -27 0 -30 3 -30 30 0 17 0 33 -1 38 0 4 10 9 22 12
12 3 23 13 25 23 1 10 7 24 13 30 12 16 53 17 63 3z m-132 -50 c0 -3 -4 -8
-10 -11 -5 -3 -10 -1 -10 4 0 6 5 11 10 11 6 0 10 -2 10 -4z"/>
<path d="M1140 3620 c-30 -5 -93 -19 -140 -32 l-85 -23 100 -6 c137 -9 212
-42 304 -137 105 -108 179 -248 288 -546 30 -83 56 -153 58 -156 4 -7 173 21
248 40 129 34 147 42 147 60 0 23 -63 257 -90 335 -27 79 -101 225 -113 225
-5 0 -3 -8 4 -17 13 -16 12 -17 -3 -4 -10 7 -16 17 -13 21 3 4 -2 10 -10 14
-8 3 -15 11 -14 18 0 10 2 10 6 1 2 -7 10 -13 16 -13 7 1 2 9 -10 19 -13 11
-23 23 -23 29 0 5 -10 17 -21 28 -21 19 -22 19 -15 -3 4 -12 2 -24 -3 -28 -6
-3 -8 0 -5 9 3 9 -5 21 -21 32 -14 9 -24 23 -21 30 3 8 0 11 -8 8 -8 -3 -17 0
-22 7 -5 8 -3 10 7 5 8 -4 4 1 -9 11 -28 23 -120 58 -190 72 -60 12 -279 13
-362 1z m570 -114 c0 -2 -7 -7 -16 -10 -8 -3 -12 -2 -9 4 6 10 25 14 25 6z
m98 -84 c2 -7 -1 -12 -8 -12 -6 0 -9 4 -6 9 4 5 1 12 -4 14 -6 3 -5 4 2 3 6
-1 14 -8 16 -14z"/>
<path d="M1730 3506 c0 -2 7 -7 16 -10 8 -3 12 -2 9 4 -6 10 -25 14 -25 6z"/>
<path d="M2060 3390 c0 -5 5 -10 10 -10 6 0 10 5 10 10 0 6 -4 10 -10 10 -5 0
-10 -4 -10 -10z"/>
<path d="M2945 3391 c-4 -7 -2 -18 4 -24 6 -6 11 -8 11 -4 0 4 10 2 23 -4 19
-10 20 -9 7 2 -8 8 -19 20 -26 28 -8 11 -13 11 -19 2z"/>
<path d="M1275 2890 c-3 -5 -1 -10 4 -10 6 0 11 5 11 10 0 6 -2 10 -4 10 -3 0
-8 -4 -11 -10z"/>
<path d="M1243 2854 c-7 -7 -13 -20 -13 -29 0 -8 -4 -15 -8 -15 -11 0 -9 -61
2 -79 8 -12 11 -11 22 3 7 10 10 25 7 33 -5 12 -7 12 -14 1 -7 -10 -9 -9 -9 5
0 9 5 17 10 17 15 0 32 49 23 65 -7 11 -10 11 -20 -1z m17 -14 c0 -5 -5 -10
-11 -10 -5 0 -7 5 -4 10 3 6 8 10 11 10 2 0 4 -4 4 -10z"/>
<path d="M1126 2805 c-64 -83 -73 -155 -26 -208 48 -55 166 -90 290 -86 72 3
78 5 74 23 -4 21 -24 46 -24 31 0 -6 -4 -4 -9 4 -5 7 -6 22 -4 32 5 16 8 17
22 7 11 -9 11 -6 -2 9 -16 19 -29 22 -90 21 -83 0 -182 29 -209 63 -22 26 -23
74 -4 112 20 36 14 34 -18 -8z m304 -179 c0 -2 -9 -6 -20 -9 -11 -3 -18 -1
-14 4 5 9 34 13 34 5z"/>
<path d="M1256 2723 c-6 -14 -5 -15 5 -6 7 7 10 15 7 18 -3 3 -9 -2 -12 -12z"/>
<path d="M2155 2648 c-107 -39 -361 -108 -396 -108 -10 0 -21 -4 -24 -10 -3
-5 21 -98 54 -207 32 -109 69 -234 81 -278 30 -109 41 -125 90 -125 32 0 44 6
66 34 15 18 32 51 39 72 7 21 52 161 100 309 47 149 92 289 100 313 8 23 11
42 7 41 -4 0 -56 -19 -117 -41z"/>
</g>
</svg>
